<svg xmlns="http://www.w3.org/2000/svg" xmlns:xlink="http://www.w3.org/1999/xlink" version="1.1" width="256" height="256" viewBox="0 0 256 256" xml:space="preserve">

<defs>
</defs>
<g style="stroke: none; stroke-width: 0; stroke-dasharray: none; stroke-linecap: butt; stroke-linejoin: miter; stroke-miterlimit: 10; fill: none; fill-rule: nonzero; opacity: 1;" transform="translate(1.4065934065934016 1.4065934065934016) scale(2.81 2.81)" >
	<path d="M 45 48.725 c -2.209 0 -4 -1.791 -4 -4 v -4.338 c 0 -1.101 0.454 -2.153 1.254 -2.909 l 6.892 -6.506 c 1.011 -1.065 1.566 -2.458 1.566 -3.93 v -0.258 c 0 -1.553 -0.613 -3.006 -1.726 -4.09 s -2.584 -1.657 -4.14 -1.619 c -3.065 0.079 -5.558 2.738 -5.558 5.928 c 0 2.209 -1.791 4 -4 4 s -4 -1.791 -4 -4 c 0 -7.489 5.99 -13.736 13.352 -13.925 c 3.748 -0.103 7.259 1.285 9.93 3.887 c 2.671 2.603 4.142 6.091 4.142 9.82 v 0.258 c 0 3.592 -1.379 6.987 -3.884 9.562 c -0.04 0.041 -0.08 0.08 -0.121 0.119 L 49 42.111 v 2.613 C 49 46.934 47.209 48.725 45 48.725 z" style="stroke: none; stroke-width: 1; stroke-dasharray: none; stroke-linecap: butt; stroke-linejoin: miter; stroke-miterlimit: 10; fill: rgb(255,255,255); fill-rule: nonzero; opacity: 1;" transform=" matrix(1 0 0 1 0 0) " stroke-linecap="round" />
	<path d="M 45 61.78 c -0.33 0 -0.65 -0.03 -0.98 -0.101 c -0.32 -0.06 -0.63 -0.16 -0.93 -0.28 c -0.3 -0.13 -0.59 -0.279 -0.86 -0.46 c -0.28 -0.18 -0.53 -0.39 -0.77 -0.63 C 40.53 59.39 40 58.1 40 56.78 c 0 -0.33 0.03 -0.65 0.1 -0.98 c 0.06 -0.32 0.16 -0.63 0.28 -0.93 c 0.13 -0.301 0.28 -0.59 0.46 -0.86 c 0.19 -0.28 0.39 -0.53 0.62 -0.76 c 0.24 -0.24 0.49 -0.44 0.77 -0.63 c 0.27 -0.181 0.56 -0.33 0.86 -0.46 c 0.3 -0.12 0.61 -0.221 0.93 -0.28 c 0.65 -0.13 1.31 -0.13 1.96 0 c 0.32 0.06 0.629 0.16 0.93 0.28 c 0.3 0.13 0.59 0.279 0.859 0.46 c 0.28 0.189 0.54 0.39 0.761 0.63 c 0.239 0.229 0.439 0.479 0.63 0.76 c 0.18 0.271 0.33 0.56 0.46 0.86 c 0.12 0.3 0.22 0.609 0.279 0.93 C 49.97 56.13 50 56.45 50 56.78 c 0 1.319 -0.53 2.6 -1.47 3.529 C 47.6 61.25 46.319 61.78 45 61.78 z" style="stroke: none; stroke-width: 1; stroke-dasharray: none; stroke-linecap: butt; stroke-linejoin: miter; stroke-miterlimit: 10; fill: rgb(255,255,255); fill-rule: nonzero; opacity: 1;" transform=" matrix(1 0 0 1 0 0) " stroke-linecap="round" />
	<path d="M 45 90 c -1.496 0 -2.867 -0.835 -3.554 -2.164 l -6.898 -13.357 H 21.379 c -7.509 0 -13.619 -6.109 -13.619 -13.619 V 13.619 C 7.761 6.109 13.87 0 21.379 0 H 68.62 c 7.51 0 13.619 6.109 13.619 13.619 v 47.241 c 0 7.51 -6.109 13.619 -13.619 13.619 H 55.452 l -6.898 13.356 C 47.867 89.165 46.496 90 45 90 z M 21.379 8 c -3.098 0 -5.619 2.521 -5.619 5.619 v 47.241 c 0 3.099 2.521 5.619 5.619 5.619 h 15.604 c 1.496 0 2.867 0.835 3.554 2.164 L 45 77.283 l 4.462 -8.64 c 0.687 -1.33 2.058 -2.165 3.554 -2.165 H 68.62 c 3.099 0 5.619 -2.521 5.619 -5.619 V 13.619 C 74.239 10.521 71.719 8 68.62 8 H 21.379 z" style="stroke: none; stroke-width: 1; stroke-dasharray: none; stroke-linecap: butt; stroke-linejoin: miter; stroke-miterlimit: 10; fill: rgb(255,255,255); fill-rule: nonzero; opacity: 1;" transform=" matrix(1 0 0 1 0 0) " stroke-linecap="round" />
</g>
</svg>