<?xml version="1.0" standalone="no"?>
<!DOCTYPE svg PUBLIC "-//W3C//DTD SVG 20010904//EN"
 "http://www.w3.org/TR/2001/REC-SVG-20010904/DTD/svg10.dtd">
<svg version="1.0" xmlns="http://www.w3.org/2000/svg"
 width="980.000000pt" height="980.000000pt" viewBox="0 0 980.000000 980.000000"
 preserveAspectRatio="xMidYMid meet">

<g transform="translate(0.000000,980.000000) scale(0.100000,-0.100000)"
fill="#000000" stroke="none">
<path d="M560 9785 c-181 -36 -342 -147 -446 -306 -53 -82 -81 -152 -100 -247
-21 -111 -21 -2954 0 -3065 18 -92 46 -161 101 -247 100 -155 270 -271 449
-305 114 -22 2955 -23 3069 -1 276 53 500 277 553 553 21 112 21 2954 0 3066
-53 277 -276 500 -553 553 -106 20 -2972 19 -3073 -1z m2731 -716 c79 -37 133
-90 171 -167 l33 -67 0 -1135 0 -1135 -26 -56 c-37 -79 -90 -133 -167 -171
l-67 -33 -1135 0 -1135 0 -55 26 c-82 39 -135 90 -172 167 l-33 67 0 1135 0
1135 26 55 c46 99 120 163 222 196 34 10 256 12 1162 11 l1120 -2 56 -26z"/>
<path d="M6160 9785 c-181 -36 -342 -147 -446 -306 -53 -82 -81 -152 -100
-247 -21 -111 -21 -2954 0 -3065 18 -92 46 -161 101 -247 100 -155 270 -271
449 -305 114 -22 2955 -23 3069 -1 276 53 500 277 553 553 21 112 21 2954 0
3066 -53 277 -276 500 -553 553 -106 20 -2972 19 -3073 -1z m2731 -716 c79
-37 133 -90 171 -167 l33 -67 0 -1135 0 -1135 -26 -56 c-37 -79 -90 -133 -167
-171 l-67 -33 -1135 0 -1135 0 -55 26 c-82 39 -135 90 -172 167 l-33 67 0
1135 0 1135 26 55 c46 99 120 163 222 196 34 10 256 12 1162 11 l1120 -2 56
-26z"/>
<path d="M560 4185 c-181 -36 -342 -147 -446 -306 -53 -82 -81 -152 -100 -247
-21 -111 -21 -2954 0 -3065 18 -92 46 -161 101 -247 100 -155 270 -271 449
-305 114 -22 2955 -23 3069 -1 276 53 500 277 553 553 21 112 21 2954 0 3066
-53 277 -276 500 -553 553 -106 20 -2972 19 -3073 -1z m2731 -716 c79 -37 133
-90 171 -167 l33 -67 0 -1135 0 -1135 -26 -56 c-37 -79 -90 -133 -167 -171
l-67 -33 -1135 0 -1135 0 -55 26 c-82 39 -135 90 -172 167 l-33 67 0 1135 0
1135 26 55 c46 99 120 163 222 196 34 10 256 12 1162 11 l1120 -2 56 -26z"/>
<path d="M6160 4185 c-181 -36 -342 -147 -446 -306 -53 -82 -81 -152 -100
-247 -21 -111 -21 -2954 0 -3065 18 -92 46 -161 101 -247 100 -155 270 -271
449 -305 114 -22 2955 -23 3069 -1 276 53 500 277 553 553 21 112 21 2954 0
3066 -53 277 -276 500 -553 553 -106 20 -2972 19 -3073 -1z m2731 -716 c79
-37 133 -90 171 -167 l33 -67 0 -1135 0 -1135 -26 -56 c-37 -79 -90 -133 -167
-171 l-67 -33 -1135 0 -1135 0 -55 26 c-82 39 -135 90 -172 167 l-33 67 0
1135 0 1135 26 55 c46 99 120 163 222 196 34 10 256 12 1162 11 l1120 -2 56
-26z"/>
</g>
</svg>
